<?xml version="1.0" standalone="no"?><!DOCTYPE svg PUBLIC "-//W3C//DTD SVG 1.1//EN" "http://www.w3.org/Graphics/SVG/1.1/DTD/svg11.dtd"><svg t="1708484705224" class="icon" viewBox="0 0 1024 1024" version="1.1" xmlns="http://www.w3.org/2000/svg" p-id="6231" data-spm-anchor-id="a313x.search_index.0.i4.1ec83a81XOelwN" xmlns:xlink="http://www.w3.org/1999/xlink" width="200" height="200"><path d="M512 512m-68.266667 0a68.266667 68.266667 0 1 0 136.533334 0 68.266667 68.266667 0 1 0-136.533334 0Z" fill="#AECBFA" p-id="6232" data-spm-anchor-id="a313x.search_index.0.i3.1ec83a81XOelwN" class="selected"></path><path d="M323.413333 392.533333h271.786667l31.573333-29.866666-31.573333-29.866667H323.413333v59.733333z" fill="#4285F4" p-id="6233"></path><path d="M290.133333 362.666667m-52.48 0a52.48 52.48 0 1 0 104.96 0 52.48 52.48 0 1 0-104.96 0Z" fill="#669DF6" p-id="6234"></path><path d="M733.866667 362.666667m-68.266667 0a68.266667 68.266667 0 1 0 136.533333 0 68.266667 68.266667 0 1 0-136.533333 0Z" fill="#AECBFA" p-id="6235" data-spm-anchor-id="a313x.search_index.0.i2.1ec83a81XOelwN" class="selected"></path><path d="M399.36 661.333333l31.573333 29.866667h267.946667v-59.733333H430.933333l-31.573333 29.866666z" fill="#4285F4" p-id="6236"></path><path d="M290.133333 661.333333m-68.266666 0a68.266667 68.266667 0 1 0 136.533333 0 68.266667 68.266667 0 1 0-136.533333 0Z" fill="#AECBFA" p-id="6237"></path><path d="M733.866667 661.333333m-52.48 0a52.48 52.48 0 1 0 104.96 0 52.48 52.48 0 1 0-104.96 0Z" fill="#669DF6" p-id="6238"></path><path d="M178.346667 213.333333h541.013333l31.573333-29.866666-31.573333-29.866667H178.346667V213.333333z" fill="#4285F4" p-id="6239"></path><path d="M153.6 183.466667m-52.48 0a52.48 52.48 0 1 0 104.96 0 52.48 52.48 0 1 0-104.96 0Z" fill="#669DF6" p-id="6240"></path><path d="M870.4 183.466667m-68.266667 0a68.266667 68.266667 0 1 0 136.533334 0 68.266667 68.266667 0 1 0-136.533334 0Z" fill="#AECBFA" p-id="6241"></path><path d="M273.066667 840.533333l31.573333 29.866667h541.866667V810.666667H304.64l-31.573333 29.866666z" fill="#4285F4" p-id="6242"></path><path d="M153.6 840.533333m-68.266667 0a68.266667 68.266667 0 1 0 136.533334 0 68.266667 68.266667 0 1 0-136.533334 0Z" fill="#AECBFA" p-id="6243"></path><path d="M870.4 840.533333m-52.48 0a52.48 52.48 0 1 0 104.96 0 52.48 52.48 0 1 0-104.96 0Z" fill="#669DF6" p-id="6244"></path></svg>