<?xml version="1.0" standalone="no"?><!DOCTYPE svg PUBLIC "-//W3C//DTD SVG 1.1//EN" "http://www.w3.org/Graphics/SVG/1.1/DTD/svg11.dtd"><svg t="1711598623077" class="icon" viewBox="0 0 1024 1024" version="1.1" xmlns="http://www.w3.org/2000/svg" p-id="5875" width="200" height="200" data-spm-anchor-id="a313x.search_index.0.i7.7db23a81ntJCw9" xmlns:xlink="http://www.w3.org/1999/xlink"><path d="M808.533333 618.666667l-14.933333-108.8c57.6-12.8 100.266667-64 100.266667-123.733334 0-70.4-57.6-128-128-128s-128 57.6-128 128c0 32 10.666667 59.733333 29.866666 81.066667l-96 98.133333c-12.8-6.4-25.6-10.666667-38.4-10.666666-8.533333 0-14.933333 2.133333-23.466666 4.266666L448 454.4c19.2-14.933333 34.133333-40.533333 34.133333-68.266667 0-44.8-36.266667-83.2-81.066666-85.333333l-6.4-89.6c17.066667-6.4 27.733333-21.333333 27.733333-40.533333 0-23.466667-19.2-42.666667-42.666667-42.666667s-42.666667 19.2-42.666666 42.666667c0 21.333333 14.933333 38.4 36.266666 42.666666l6.4 89.6c-38.4 8.533333-68.266667 42.666667-68.266666 83.2v6.4l-98.133334 17.066667c-6.4-14.933333-21.333333-23.466667-38.4-23.466667-23.466667 0-42.666667 19.2-42.666666 42.666667s19.2 42.666667 42.666666 42.666667 40.533333-17.066667 42.666667-40.533334l98.133333-19.2c10.666667 34.133333 42.666667 59.733333 81.066667 59.733334 12.8 0 23.466667-2.133333 34.133333-6.4l61.866667 104.533333c-14.933333 12.8-23.466667 29.866667-23.466667 49.066667 0 10.666667 2.133333 19.2 6.4 27.733333l-102.4 74.666667c-14.933333-17.066667-36.266667-25.6-61.866666-25.6-10.666667 0-21.333333 2.133333-29.866667 6.4l-34.133333-66.133334c8.533333-8.533333 14.933333-19.2 14.933333-32 0-23.466667-19.2-42.666667-42.666667-42.666666s-42.666667 19.2-42.666666 42.666666 19.2 42.666667 42.666666 42.666667h8.533334l36.266666 66.133333c-21.333333 14.933333-36.266667 40.533333-36.266666 70.4 0 46.933333 38.4 85.333333 85.333333 85.333334s85.333333-38.4 85.333333-85.333334c0-14.933333-4.266667-29.866667-10.666666-42.666666l102.4-72.533334c10.666667 12.8 27.733333 19.2 44.8 19.2 4.266667 0 10.666667 0 14.933333-2.133333l59.733333 138.666667c-10.666667 8.533333-17.066667 19.2-17.066666 34.133333 0 23.466667 19.2 42.666667 42.666666 42.666667s42.666667-19.2 42.666667-42.666667-19.2-42.666667-42.666667-42.666667h-6.4l-59.733333-138.666666c17.066667-14.933333 27.733333-34.133333 27.733333-57.6 0-14.933333-4.266667-27.733333-12.8-38.4l96-98.133334c21.333333 19.2 51.2 29.866667 83.2 29.866667h8.533334l14.933333 108.8c-25.6 8.533333-44.8 32-44.8 59.733333 0 36.266667 27.733333 64 64 64s64-27.733333 64-64c0-32-27.733333-61.866667-61.866667-61.866666z" fill="#17abe3" p-id="5876" data-spm-anchor-id="a313x.search_index.0.i0.7db23a81ntJCw9" class="selected"></path></svg>